<svg width="24" height="25" viewBox="0 0 24 25" fill="none" xmlns="http://www.w3.org/2000/svg">
<g id="bi:medium" clip-path="url(#clip0_173_439)">
<path id="Vector" d="M13.5375 12.5C13.5375 16.2275 10.5075 19.25 6.768 19.25C5.8804 19.2512 5.00125 19.0775 4.18076 18.739C3.36026 18.4004 2.61449 17.9035 1.98603 17.2767C1.35756 16.6499 0.858704 15.9055 0.517941 15.0859C0.177178 14.2663 0.00118111 13.3876 0 12.5C0 8.77101 3.03 5.75001 6.768 5.75001C7.65573 5.74863 8.53504 5.92214 9.3557 6.26063C10.1764 6.59912 10.9223 7.09596 11.5509 7.72278C12.1796 8.34959 12.6786 9.0941 13.0194 9.91379C13.3603 10.7335 13.5363 11.6123 13.5375 12.5ZM20.9625 12.5C20.9625 16.01 19.4475 18.854 17.5785 18.854C15.7095 18.854 14.1945 16.0085 14.1945 12.5C14.1945 8.99001 15.7095 6.14601 17.5785 6.14601C19.4475 6.14601 20.9625 8.99151 20.9625 12.5ZM24 12.5C24 15.644 23.4675 18.1925 22.809 18.1925C22.152 18.1925 21.6195 15.6425 21.6195 12.5C21.6195 9.35601 22.152 6.80751 22.8105 6.80751C23.4675 6.80751 24 9.35601 24 12.5Z" fill="white"/>
</g>
<defs>
<clipPath id="clip0_173_439">
<rect width="24" height="24" fill="white" transform="translate(0 0.5)"/>
</clipPath>
</defs>
</svg>
