<svg width="80" height="79" viewBox="0 0 80 79" fill="none" xmlns="http://www.w3.org/2000/svg">
<g id="Icon">
<rect id="Rectangle" opacity="0.1" x="0.914062" width="79" height="79" rx="15" fill="#68D585"/>
<g id="chat-33">
<path id="Path" opacity="0.5" d="M57.0783 39C55.5756 45.7571 48.3122 50.8988 39.5987 50.8988C38.3633 50.8988 37.1302 50.7875 35.9141 50.5762C38.9018 53.1631 43.5274 54.468 48.3076 53.761L54.7056 56.9199C54.8146 56.9733 54.9328 57 55.051 57C55.1924 57 55.333 56.9619 55.4574 56.8864C55.6845 56.7476 55.8236 56.502 55.8236 56.2374V50.4191C57.8193 48.6315 58.9141 46.3771 58.9141 44.035C58.9141 42.2443 58.2674 40.5146 57.0783 39Z" fill="#68D585"/>
<path id="Path_2" d="M39.4141 23C30.3155 23 22.9141 28.8198 22.9141 35.9737C22.9141 38.7233 23.9991 41.3448 26.0569 43.5747V51.2368C26.0569 51.5017 26.1983 51.7466 26.4293 51.8863C26.5558 51.9618 26.6988 52 26.8426 52C26.9628 52 27.0831 51.9733 27.1938 51.9199L34.5246 48.3597C36.1235 48.7497 37.7664 48.9474 39.4141 48.9474C48.5126 48.9474 55.9141 43.1275 55.9141 35.9737C55.9141 28.8198 48.5126 23 39.4141 23Z" fill="#68D585"/>
</g>
</g>
</svg>
