<svg width="24" height="25" viewBox="0 0 24 25" fill="none" xmlns="http://www.w3.org/2000/svg">
<g id="devicon:linkedin">
<path id="Vector" d="M21.75 1.06253H2.25C1.80756 1.05802 1.3814 1.22922 1.06504 1.53856C0.74867 1.84789 0.56794 2.27009 0.5625 2.71253V22.2913C0.568923 22.7331 0.750087 23.1543 1.06634 23.4628C1.3826 23.7714 1.8082 23.942 2.25 23.9375H21.75C22.1925 23.941 22.6183 23.7693 22.9345 23.4597C23.2507 23.1502 23.4316 22.7281 23.4375 22.2857V2.7069C23.4296 2.26577 23.2479 1.84558 22.9319 1.53766C22.6159 1.22975 22.1912 1.059 21.75 1.06253Z" fill="#0076B2"/>
<path id="Vector_2" d="M3.94871 9.6369H7.34434V20.5625H3.94871V9.6369ZM5.64746 4.1994C6.03692 4.1994 6.41764 4.31491 6.74144 4.53133C7.06523 4.74774 7.31757 5.05533 7.46653 5.41518C7.61548 5.77503 7.65436 6.17097 7.57824 6.55293C7.50213 6.93488 7.31444 7.28567 7.03891 7.56093C6.76339 7.83619 6.41242 8.02355 6.0304 8.0993C5.64837 8.17505 5.25246 8.1358 4.89275 7.9865C4.53304 7.8372 4.2257 7.58457 4.00959 7.26057C3.79349 6.93656 3.67834 6.55574 3.67871 6.16628C3.67921 5.64446 3.88685 5.14418 4.25601 4.77537C4.62517 4.40657 5.12564 4.1994 5.64746 4.1994ZM9.47434 9.6369H12.7293V11.1369H12.7743C13.2281 10.2782 14.3343 9.37253 15.9862 9.37253C19.425 9.36503 20.0625 11.6282 20.0625 14.5625V20.5625H16.6668V15.2469C16.6668 13.9813 16.6443 12.3519 14.9025 12.3519C13.1606 12.3519 12.8643 13.7319 12.8643 15.1644V20.5625H9.47434V9.6369Z" fill="white"/>
</g>
</svg>
