<svg width="87" height="112" viewBox="0 0 87 112" fill="none" xmlns="http://www.w3.org/2000/svg">
<g id="Group 161">
<path id="Fill 7" fill-rule="evenodd" clip-rule="evenodd" d="M10.7679 20C11.6279 20 12.4715 19.6805 13.0797 19.121C13.6896 18.563 14.0378 17.7905 14.0378 17C14.0378 16.2095 13.6896 15.437 13.0797 14.879C12.4715 14.3195 11.6279 14 10.7679 14C9.90632 14 9.06432 14.3195 8.45449 14.879C7.84629 15.437 7.49805 16.2095 7.49805 17C7.49805 17.7905 7.84629 18.563 8.45449 19.121C9.06432 19.6805 9.90632 20 10.7679 20Z" fill="#130D3A"/>
<path id="Fill 9" fill-rule="evenodd" clip-rule="evenodd" d="M29.2972 20C30.1588 20 31.0008 19.6805 31.6107 19.121C32.2189 18.563 32.5671 17.7905 32.5671 17C32.5671 16.2095 32.2189 15.437 31.6107 14.879C31.0008 14.3195 30.1588 14 29.2972 14C28.4373 14 27.5936 14.3195 26.9854 14.879C26.3756 15.437 26.0273 16.2095 26.0273 17C26.0273 17.7905 26.3756 18.563 26.9854 19.121C27.5936 19.6805 28.4373 20 29.2972 20Z" fill="#130D3A"/>
<path id="Fill 11" fill-rule="evenodd" clip-rule="evenodd" d="M65.2578 20H65.2741C67.0762 20 68.5359 18.656 68.5359 17C68.5359 15.344 67.0762 14 65.2741 14H65.2578C63.4574 14 61.9961 15.344 61.9961 17C61.9961 18.656 63.4574 20 65.2578 20Z" fill="#130D3A"/>
<path id="Fill 13" fill-rule="evenodd" clip-rule="evenodd" d="M46.7285 20H46.7448C48.5453 20 50.0066 18.656 50.0066 17C50.0066 15.344 48.5453 14 46.7448 14H46.7285C44.9281 14 43.4668 15.344 43.4668 17C43.4668 18.656 44.9281 20 46.7285 20Z" fill="#130D3A"/>
<g id="Group 17">
<mask id="mask0_57_134" style="mask-type:luminance" maskUnits="userSpaceOnUse" x="79" y="13" width="8" height="8">
<path id="Clip 16" fill-rule="evenodd" clip-rule="evenodd" d="M79.7656 13.7878H86.741V20.1878H79.7656V13.7878Z" fill="white"/>
</mask>
<g mask="url(#mask0_57_134)">
<path id="Fill 15" fill-rule="evenodd" clip-rule="evenodd" d="M83.2535 20.1878C84.1708 20.1878 85.0707 19.847 85.7194 19.2502C86.3699 18.655 86.7414 17.831 86.7414 16.9878C86.7414 16.1446 86.3699 15.3206 85.7194 14.7254C85.0707 14.1286 84.1708 13.7878 83.2535 13.7878C82.3345 13.7878 81.4363 14.1286 80.7858 14.7254C80.1371 15.3206 79.7656 16.1446 79.7656 16.9878C79.7656 17.831 80.1371 18.655 80.7858 19.2502C81.4363 19.847 82.3345 20.1878 83.2535 20.1878Z" fill="#130D3A"/>
</g>
</g>
<path id="Fill 24" fill-rule="evenodd" clip-rule="evenodd" d="M10.7679 7C11.6279 7 12.4715 6.6805 13.0797 6.121C13.6896 5.563 14.0378 4.789 14.0378 4C14.0378 3.2095 13.6896 2.437 13.0797 1.8775C12.4715 1.3195 11.6279 1 10.7679 1C9.90632 1 9.06432 1.3195 8.45449 1.8775C7.84629 2.437 7.49805 3.2095 7.49805 4C7.49805 4.789 7.84629 5.563 8.45449 6.121C9.06432 6.6805 9.90632 7 10.7679 7Z" fill="#130D3A"/>
<path id="Fill 26" fill-rule="evenodd" clip-rule="evenodd" d="M29.2972 7C30.1588 7 31.0008 6.6805 31.6107 6.121C32.2189 5.563 32.5671 4.789 32.5671 4C32.5671 3.2095 32.2189 2.437 31.6107 1.8775C31.0008 1.3195 30.1588 1 29.2972 1C28.4373 1 27.5936 1.3195 26.9854 1.8775C26.3756 2.437 26.0273 3.2095 26.0273 4C26.0273 4.789 26.3756 5.563 26.9854 6.121C27.5936 6.6805 28.4373 7 29.2972 7Z" fill="#130D3A"/>
<path id="Fill 28" fill-rule="evenodd" clip-rule="evenodd" d="M65.2578 7H65.2741C67.0762 7 68.5359 5.656 68.5359 4C68.5359 2.344 67.0762 1 65.2741 1H65.2578C63.4574 1 61.9961 2.344 61.9961 4C61.9961 5.656 63.4574 7 65.2578 7Z" fill="#130D3A"/>
<path id="Fill 30" fill-rule="evenodd" clip-rule="evenodd" d="M46.7285 7H46.7448C48.5453 7 50.0066 5.656 50.0066 4C50.0066 2.344 48.5453 1 46.7448 1H46.7285C44.9281 1 43.4668 2.344 43.4668 4C43.4668 5.656 44.9281 7 46.7285 7Z" fill="#130D3A"/>
<g id="Group 34">
<mask id="mask1_57_134" style="mask-type:luminance" maskUnits="userSpaceOnUse" x="79" y="0" width="8" height="7">
<path id="Clip 33" fill-rule="evenodd" clip-rule="evenodd" d="M79.7656 0.443115H86.741V6.84312H79.7656V0.443115Z" fill="white"/>
</mask>
<g mask="url(#mask1_57_134)">
<path id="Fill 32" fill-rule="evenodd" clip-rule="evenodd" d="M83.2535 6.84312C84.1708 6.84312 85.0707 6.50232 85.7194 5.90552C86.3699 5.31032 86.7414 4.48472 86.7414 3.64312C86.7414 2.79992 86.3699 1.97592 85.7194 1.37912C85.0707 0.783915 84.1708 0.443115 83.2535 0.443115C82.3345 0.443115 81.4363 0.783915 80.7858 1.37912C80.1371 1.97592 79.7656 2.79992 79.7656 3.64312C79.7656 4.48472 80.1371 5.31032 80.7858 5.90552C81.4363 6.50232 82.3345 6.84312 83.2535 6.84312Z" fill="#130D3A"/>
</g>
</g>
<path id="Fill 41" fill-rule="evenodd" clip-rule="evenodd" d="M10.7679 33C11.6279 33 12.4715 32.6805 13.0797 32.121C13.6896 31.563 14.0378 30.7905 14.0378 30C14.0378 29.211 13.6896 28.437 13.0797 27.879C12.4715 27.3195 11.6279 27 10.7679 27C9.90632 27 9.06432 27.3195 8.45449 27.879C7.84629 28.437 7.49805 29.211 7.49805 30C7.49805 30.7905 7.84629 31.563 8.45449 32.121C9.06432 32.6805 9.90632 33 10.7679 33Z" fill="#130D3A"/>
<path id="Fill 43" fill-rule="evenodd" clip-rule="evenodd" d="M29.2972 33C30.1588 33 31.0008 32.6805 31.6107 32.121C32.2189 31.563 32.5671 30.7905 32.5671 30C32.5671 29.211 32.2189 28.437 31.6107 27.879C31.0008 27.3195 30.1588 27 29.2972 27C28.4373 27 27.5936 27.3195 26.9854 27.879C26.3756 28.437 26.0273 29.211 26.0273 30C26.0273 30.7905 26.3756 31.563 26.9854 32.121C27.5936 32.6805 28.4373 33 29.2972 33Z" fill="#130D3A"/>
<path id="Fill 45" fill-rule="evenodd" clip-rule="evenodd" d="M65.2578 33H65.2741C67.0762 33 68.5359 31.656 68.5359 30C68.5359 28.344 67.0762 27 65.2741 27H65.2578C63.4574 27 61.9961 28.344 61.9961 30C61.9961 31.656 63.4574 33 65.2578 33Z" fill="#130D3A"/>
<path id="Fill 47" fill-rule="evenodd" clip-rule="evenodd" d="M46.7285 33H46.7448C48.5453 33 50.0066 31.656 50.0066 30C50.0066 28.344 48.5453 27 46.7448 27H46.7285C44.9281 27 43.4668 28.344 43.4668 30C43.4668 31.656 44.9281 33 46.7285 33Z" fill="#130D3A"/>
<g id="Group 51">
<mask id="mask2_57_134" style="mask-type:luminance" maskUnits="userSpaceOnUse" x="79" y="27" width="8" height="7">
<path id="Clip 50" fill-rule="evenodd" clip-rule="evenodd" d="M79.7656 27.1323H86.741V33.5323H79.7656V27.1323Z" fill="white"/>
</mask>
<g mask="url(#mask2_57_134)">
<path id="Fill 49" fill-rule="evenodd" clip-rule="evenodd" d="M83.2535 33.5323C84.1708 33.5323 85.0707 33.1915 85.7194 32.5947C86.3699 31.9995 86.7414 31.1755 86.7414 30.3323C86.7414 29.4907 86.3699 28.6651 85.7194 28.0699C85.0707 27.4731 84.1708 27.1323 83.2535 27.1323C82.3345 27.1323 81.4363 27.4731 80.7858 28.0699C80.1371 28.6651 79.7656 29.4907 79.7656 30.3323C79.7656 31.1755 80.1371 31.9995 80.7858 32.5947C81.4363 33.1915 82.3345 33.5323 83.2535 33.5323Z" fill="#130D3A"/>
</g>
</g>
<path id="Fill 58" fill-rule="evenodd" clip-rule="evenodd" d="M10.7679 46C11.6279 46 12.4715 45.6805 13.0797 45.121C13.6896 44.563 14.0378 43.7905 14.0378 43C14.0378 42.2095 13.6896 41.437 13.0797 40.879C12.4715 40.3195 11.6279 40 10.7679 40C9.90632 40 9.06432 40.3195 8.45449 40.879C7.84629 41.437 7.49805 42.2095 7.49805 43C7.49805 43.7905 7.84629 44.563 8.45449 45.121C9.06432 45.6805 9.90632 46 10.7679 46Z" fill="#130D3A"/>
<path id="Fill 60" fill-rule="evenodd" clip-rule="evenodd" d="M29.2972 46C30.1588 46 31.0008 45.6805 31.6107 45.121C32.2189 44.563 32.5671 43.7905 32.5671 43C32.5671 42.2095 32.2189 41.437 31.6107 40.879C31.0008 40.3195 30.1588 40 29.2972 40C28.4373 40 27.5936 40.3195 26.9854 40.879C26.3756 41.437 26.0273 42.2095 26.0273 43C26.0273 43.7905 26.3756 44.563 26.9854 45.121C27.5936 45.6805 28.4373 46 29.2972 46Z" fill="#130D3A"/>
<path id="Fill 62" fill-rule="evenodd" clip-rule="evenodd" d="M65.2578 46H65.2741C67.0762 46 68.5359 44.656 68.5359 43C68.5359 41.344 67.0762 40 65.2741 40H65.2578C63.4574 40 61.9961 41.344 61.9961 43C61.9961 44.656 63.4574 46 65.2578 46Z" fill="#130D3A"/>
<path id="Fill 64" fill-rule="evenodd" clip-rule="evenodd" d="M46.7285 46H46.7448C48.5453 46 50.0066 44.656 50.0066 43C50.0066 41.344 48.5453 40 46.7448 40H46.7285C44.9281 40 43.4668 41.344 43.4668 43C43.4668 44.656 44.9281 46 46.7285 46Z" fill="#130D3A"/>
<g id="Group 68">
<mask id="mask3_57_134" style="mask-type:luminance" maskUnits="userSpaceOnUse" x="79" y="40" width="8" height="7">
<path id="Clip 67" fill-rule="evenodd" clip-rule="evenodd" d="M79.7656 40.4768H86.741V46.8768H79.7656V40.4768Z" fill="white"/>
</mask>
<g mask="url(#mask3_57_134)">
<path id="Fill 66" fill-rule="evenodd" clip-rule="evenodd" d="M83.2535 46.8768C84.1708 46.8768 85.0707 46.536 85.7194 45.9392C86.3699 45.344 86.7414 44.52 86.7414 43.6768C86.7414 42.8336 86.3699 42.0096 85.7194 41.4144C85.0707 40.8176 84.1708 40.4768 83.2535 40.4768C82.3345 40.4768 81.4363 40.8176 80.7858 41.4144C80.1371 42.0096 79.7656 42.8336 79.7656 43.6768C79.7656 44.52 80.1371 45.344 80.7858 45.9392C81.4363 46.536 82.3345 46.8768 83.2535 46.8768Z" fill="#130D3A"/>
</g>
</g>
<path id="Fill 75" fill-rule="evenodd" clip-rule="evenodd" d="M10.7679 60C11.6279 60 12.4715 59.6805 13.0797 59.121C13.6896 58.563 14.0378 57.7905 14.0378 57C14.0378 56.211 13.6896 55.437 13.0797 54.879C12.4715 54.3195 11.6279 54 10.7679 54C9.90632 54 9.06432 54.3195 8.45449 54.879C7.84629 55.437 7.49805 56.211 7.49805 57C7.49805 57.7905 7.84629 58.563 8.45449 59.121C9.06432 59.6805 9.90632 60 10.7679 60Z" fill="#130D3A"/>
<path id="Fill 77" fill-rule="evenodd" clip-rule="evenodd" d="M29.2972 60C30.1588 60 31.0008 59.6805 31.6107 59.121C32.2189 58.563 32.5671 57.7905 32.5671 57C32.5671 56.211 32.2189 55.437 31.6107 54.879C31.0008 54.3195 30.1588 54 29.2972 54C28.4373 54 27.5936 54.3195 26.9854 54.879C26.3756 55.437 26.0273 56.211 26.0273 57C26.0273 57.7905 26.3756 58.563 26.9854 59.121C27.5936 59.6805 28.4373 60 29.2972 60Z" fill="#130D3A"/>
<path id="Fill 79" fill-rule="evenodd" clip-rule="evenodd" d="M65.2578 60H65.2741C67.0762 60 68.5359 58.656 68.5359 57C68.5359 55.344 67.0762 54 65.2741 54H65.2578C63.4574 54 61.9961 55.344 61.9961 57C61.9961 58.656 63.4574 60 65.2578 60Z" fill="#130D3A"/>
<path id="Fill 81" fill-rule="evenodd" clip-rule="evenodd" d="M46.7285 60H46.7448C48.5453 60 50.0066 58.656 50.0066 57C50.0066 55.344 48.5453 54 46.7448 54H46.7285C44.9281 54 43.4668 55.344 43.4668 57C43.4668 58.656 44.9281 60 46.7285 60Z" fill="#130D3A"/>
<g id="Group 85">
<mask id="mask4_57_134" style="mask-type:luminance" maskUnits="userSpaceOnUse" x="79" y="53" width="8" height="7">
<path id="Clip 84" fill-rule="evenodd" clip-rule="evenodd" d="M79.7656 53.2214H86.741V59.6214H79.7656V53.2214Z" fill="white"/>
</mask>
<g mask="url(#mask4_57_134)">
<path id="Fill 83" fill-rule="evenodd" clip-rule="evenodd" d="M83.2535 59.6214C84.1708 59.6214 85.0707 59.2806 85.7194 58.6838C86.3699 58.0886 86.7414 57.2646 86.7414 56.4214C86.7414 55.5798 86.3699 54.7542 85.7194 54.159C85.0707 53.5622 84.1708 53.2214 83.2535 53.2214C82.3345 53.2214 81.4363 53.5622 80.7858 54.159C80.1371 54.7542 79.7656 55.5798 79.7656 56.4214C79.7656 57.2646 80.1371 58.0886 80.7858 58.6838C81.4363 59.2806 82.3345 59.6214 83.2535 59.6214Z" fill="#130D3A"/>
</g>
</g>
<path id="Fill 92" fill-rule="evenodd" clip-rule="evenodd" d="M10.7679 73C11.6279 73 12.4715 72.6805 13.0797 72.1225C13.6896 71.563 14.0378 70.7905 14.0378 70C14.0378 69.211 13.6896 68.437 13.0797 67.879C12.4715 67.3195 11.6279 67 10.7679 67C9.90632 67 9.06432 67.3195 8.45449 67.879C7.84629 68.437 7.49805 69.211 7.49805 70C7.49805 70.7905 7.84629 71.563 8.45449 72.1225C9.06432 72.6805 9.90632 73 10.7679 73Z" fill="#130D3A"/>
<path id="Fill 94" fill-rule="evenodd" clip-rule="evenodd" d="M29.2972 73C30.1588 73 31.0008 72.6805 31.6107 72.1225C32.2189 71.563 32.5671 70.7905 32.5671 70C32.5671 69.211 32.2189 68.437 31.6107 67.879C31.0008 67.3195 30.1588 67 29.2972 67C28.4373 67 27.5936 67.3195 26.9854 67.879C26.3756 68.437 26.0273 69.211 26.0273 70C26.0273 70.7905 26.3756 71.563 26.9854 72.1225C27.5936 72.6805 28.4373 73 29.2972 73Z" fill="#130D3A"/>
<path id="Fill 96" fill-rule="evenodd" clip-rule="evenodd" d="M65.2578 73H65.2741C67.0762 73 68.5359 71.656 68.5359 70C68.5359 68.344 67.0762 67 65.2741 67H65.2578C63.4574 67 61.9961 68.344 61.9961 70C61.9961 71.656 63.4574 73 65.2578 73Z" fill="#130D3A"/>
<path id="Fill 98" fill-rule="evenodd" clip-rule="evenodd" d="M46.7285 73H46.7448C48.5453 73 50.0066 71.656 50.0066 70C50.0066 68.344 48.5453 67 46.7448 67H46.7285C44.9281 67 43.4668 68.344 43.4668 70C43.4668 71.656 44.9281 73 46.7285 73Z" fill="#130D3A"/>
<g id="Group 102">
<mask id="mask5_57_134" style="mask-type:luminance" maskUnits="userSpaceOnUse" x="79" y="66" width="8" height="7">
<path id="Clip 101" fill-rule="evenodd" clip-rule="evenodd" d="M79.7656 66.5659H86.741V72.9659H79.7656V66.5659Z" fill="white"/>
</mask>
<g mask="url(#mask5_57_134)">
<path id="Fill 100" fill-rule="evenodd" clip-rule="evenodd" d="M83.2535 72.9659C84.1708 72.9659 85.0707 72.6251 85.7194 72.0299C86.3699 71.4331 86.7414 70.6091 86.7414 69.7659C86.7414 68.9243 86.3699 68.0987 85.7194 67.5035C85.0707 66.9067 84.1708 66.5659 83.2535 66.5659C82.3345 66.5659 81.4363 66.9067 80.7858 67.5035C80.1371 68.0987 79.7656 68.9243 79.7656 69.7659C79.7656 70.6091 80.1371 71.4331 80.7858 72.0299C81.4363 72.6251 82.3345 72.9659 83.2535 72.9659Z" fill="#130D3A"/>
</g>
</g>
<path id="Fill 109" fill-rule="evenodd" clip-rule="evenodd" d="M10.7679 86C11.6279 86 12.4715 85.6805 13.0797 85.121C13.6896 84.563 14.0378 83.7905 14.0378 83C14.0378 82.211 13.6896 81.437 13.0797 80.879C12.4715 80.3195 11.6279 80 10.7679 80C9.90632 80 9.06432 80.3195 8.45449 80.879C7.84629 81.437 7.49805 82.211 7.49805 83C7.49805 83.7905 7.84629 84.563 8.45449 85.121C9.06432 85.6805 9.90632 86 10.7679 86Z" fill="#130D3A"/>
<path id="Fill 111" fill-rule="evenodd" clip-rule="evenodd" d="M29.2972 86C30.1588 86 31.0008 85.6805 31.6107 85.121C32.2189 84.563 32.5671 83.7905 32.5671 83C32.5671 82.211 32.2189 81.437 31.6107 80.879C31.0008 80.3195 30.1588 80 29.2972 80C28.4373 80 27.5936 80.3195 26.9854 80.879C26.3756 81.437 26.0273 82.211 26.0273 83C26.0273 83.7905 26.3756 84.563 26.9854 85.121C27.5936 85.6805 28.4373 86 29.2972 86Z" fill="#130D3A"/>
<path id="Fill 113" fill-rule="evenodd" clip-rule="evenodd" d="M65.2578 86H65.2741C67.0762 86 68.5359 84.656 68.5359 83C68.5359 81.344 67.0762 80 65.2741 80H65.2578C63.4574 80 61.9961 81.344 61.9961 83C61.9961 84.656 63.4574 86 65.2578 86Z" fill="#130D3A"/>
<path id="Fill 115" fill-rule="evenodd" clip-rule="evenodd" d="M46.7285 86H46.7448C48.5453 86 50.0066 84.656 50.0066 83C50.0066 81.344 48.5453 80 46.7448 80H46.7285C44.9281 80 43.4668 81.344 43.4668 83C43.4668 84.656 44.9281 86 46.7285 86Z" fill="#130D3A"/>
<g id="Group 119">
<mask id="mask6_57_134" style="mask-type:luminance" maskUnits="userSpaceOnUse" x="79" y="79" width="8" height="8">
<path id="Clip 118" fill-rule="evenodd" clip-rule="evenodd" d="M79.7656 79.9104H86.741V86.3104H79.7656V79.9104Z" fill="white"/>
</mask>
<g mask="url(#mask6_57_134)">
<path id="Fill 117" fill-rule="evenodd" clip-rule="evenodd" d="M83.2535 86.3104C84.1708 86.3104 85.0707 85.9696 85.7194 85.3728C86.3699 84.7776 86.7414 83.9536 86.7414 83.1104C86.7414 82.2688 86.3699 81.4432 85.7194 80.848C85.0707 80.2512 84.1708 79.9104 83.2535 79.9104C82.3345 79.9104 81.4363 80.2512 80.7858 80.848C80.1371 81.4432 79.7656 82.2688 79.7656 83.1104C79.7656 83.9536 80.1371 84.7776 80.7858 85.3728C81.4363 85.9696 82.3345 86.3104 83.2535 86.3104Z" fill="#130D3A"/>
</g>
</g>
<path id="Fill 126" fill-rule="evenodd" clip-rule="evenodd" d="M10.7679 99C11.6279 99 12.4715 98.6805 13.0797 98.1225C13.6896 97.563 14.0378 96.7905 14.0378 96C14.0378 95.211 13.6896 94.437 13.0797 93.879C12.4715 93.3195 11.6279 93 10.7679 93C9.90632 93 9.06432 93.3195 8.45449 93.879C7.84629 94.437 7.49805 95.211 7.49805 96C7.49805 96.7905 7.84629 97.563 8.45449 98.1225C9.06432 98.6805 9.90632 99 10.7679 99Z" fill="#130D3A"/>
<path id="Fill 128" fill-rule="evenodd" clip-rule="evenodd" d="M29.2972 99C30.1588 99 31.0008 98.6805 31.6107 98.1225C32.2189 97.563 32.5671 96.7905 32.5671 96C32.5671 95.211 32.2189 94.437 31.6107 93.879C31.0008 93.3195 30.1588 93 29.2972 93C28.4373 93 27.5936 93.3195 26.9854 93.879C26.3756 94.437 26.0273 95.211 26.0273 96C26.0273 96.7905 26.3756 97.563 26.9854 98.1225C27.5936 98.6805 28.4373 99 29.2972 99Z" fill="#130D3A"/>
<path id="Fill 130" fill-rule="evenodd" clip-rule="evenodd" d="M65.2578 99H65.2741C67.0762 99 68.5359 97.6575 68.5359 96C68.5359 94.344 67.0762 93 65.2741 93H65.2578C63.4574 93 61.9961 94.344 61.9961 96C61.9961 97.6575 63.4574 99 65.2578 99Z" fill="#130D3A"/>
<path id="Fill 132" fill-rule="evenodd" clip-rule="evenodd" d="M46.7285 99H46.7448C48.5453 99 50.0066 97.6575 50.0066 96C50.0066 94.344 48.5453 93 46.7448 93H46.7285C44.9281 93 43.4668 94.344 43.4668 96C43.4668 97.6575 44.9281 99 46.7285 99Z" fill="#130D3A"/>
<g id="Group 136">
<mask id="mask7_57_134" style="mask-type:luminance" maskUnits="userSpaceOnUse" x="79" y="93" width="8" height="7">
<path id="Clip 135" fill-rule="evenodd" clip-rule="evenodd" d="M79.7656 93.2549H86.741V99.6549H79.7656V93.2549Z" fill="white"/>
</mask>
<g mask="url(#mask7_57_134)">
<path id="Fill 134" fill-rule="evenodd" clip-rule="evenodd" d="M83.2535 99.6549C84.1708 99.6549 85.0707 99.3141 85.7194 98.7189C86.3699 98.1221 86.7414 97.2981 86.7414 96.4549C86.7414 95.6133 86.3699 94.7877 85.7194 94.1925C85.0707 93.5957 84.1708 93.2549 83.2535 93.2549C82.3345 93.2549 81.4363 93.5957 80.7858 94.1925C80.1371 94.7877 79.7656 95.6133 79.7656 96.4549C79.7656 97.2981 80.1371 98.1221 80.7858 98.7189C81.4363 99.3141 82.3345 99.6549 83.2535 99.6549Z" fill="#130D3A"/>
</g>
</g>
<g id="Group 148">
<mask id="mask8_57_134" style="mask-type:luminance" maskUnits="userSpaceOnUse" x="6" y="106" width="8" height="6">
<path id="Clip 147" fill-rule="evenodd" clip-rule="evenodd" d="M6.95459 106H13.9304V112H6.95459V106Z" fill="white"/>
</mask>
<g mask="url(#mask8_57_134)">
<path id="Fill 146" fill-rule="evenodd" clip-rule="evenodd" d="M10.4425 112C11.3598 112 12.2597 111.681 12.9084 111.121C13.5589 110.563 13.9304 109.789 13.9304 109C13.9304 108.21 13.5589 107.437 12.9084 106.878C12.2597 106.32 11.3598 106 10.4425 106C9.52342 106 8.62529 106.32 7.9748 106.878C7.32605 107.437 6.95459 108.21 6.95459 109C6.95459 109.789 7.32605 110.563 7.9748 111.121C8.62529 111.681 9.52342 112 10.4425 112Z" fill="#130D3A"/>
</g>
</g>
<g id="Group 151">
<mask id="mask9_57_134" style="mask-type:luminance" maskUnits="userSpaceOnUse" x="25" y="106" width="8" height="6">
<path id="Clip 150" fill-rule="evenodd" clip-rule="evenodd" d="M25.375 106H32.3508V112H25.375V106Z" fill="white"/>
</mask>
<g mask="url(#mask9_57_134)">
<path id="Fill 149" fill-rule="evenodd" clip-rule="evenodd" d="M28.8629 112C29.7819 112 30.6801 111.681 31.3306 111.121C31.9793 110.563 32.3508 109.789 32.3508 109C32.3508 108.21 31.9793 107.437 31.3306 106.878C30.6801 106.32 29.7819 106 28.8629 106C27.9456 106 27.0457 106.32 26.3969 106.878C25.7465 107.437 25.375 108.21 25.375 109C25.375 109.789 25.7465 110.563 26.3969 111.121C27.0457 111.681 27.9456 112 28.8629 112Z" fill="#130D3A"/>
</g>
</g>
<g id="Group 154">
<mask id="mask10_57_134" style="mask-type:luminance" maskUnits="userSpaceOnUse" x="61" y="106" width="8" height="6">
<path id="Clip 153" fill-rule="evenodd" clip-rule="evenodd" d="M61.3359 106H68.3291V112H61.3359V106Z" fill="white"/>
</mask>
<g mask="url(#mask10_57_134)">
<path id="Fill 152" fill-rule="evenodd" clip-rule="evenodd" d="M64.8238 112H64.8413C66.7683 112 68.3291 110.656 68.3291 109C68.3291 107.343 66.7683 106 64.8413 106H64.8238C62.8985 106 61.3359 107.343 61.3359 109C61.3359 110.656 62.8985 112 64.8238 112Z" fill="#130D3A"/>
</g>
</g>
<g id="Group 157">
<mask id="mask11_57_134" style="mask-type:luminance" maskUnits="userSpaceOnUse" x="43" y="106" width="8" height="6">
<path id="Clip 156" fill-rule="evenodd" clip-rule="evenodd" d="M43.3516 106H50.3448V112H43.3516V106Z" fill="white"/>
</mask>
<g mask="url(#mask11_57_134)">
<path id="Fill 155" fill-rule="evenodd" clip-rule="evenodd" d="M46.8394 112H46.8569C48.7822 112 50.3448 110.656 50.3448 109C50.3448 107.343 48.7822 106 46.8569 106H46.8394C44.9141 106 43.3516 107.343 43.3516 109C43.3516 110.656 44.9141 112 46.8394 112Z" fill="#130D3A"/>
</g>
</g>
<g id="Group 160">
<mask id="mask12_57_134" style="mask-type:luminance" maskUnits="userSpaceOnUse" x="79" y="106" width="8" height="6">
<path id="Clip 159" fill-rule="evenodd" clip-rule="evenodd" d="M79.7656 106H86.741V112H79.7656V106Z" fill="white"/>
</mask>
<g mask="url(#mask12_57_134)">
<path id="Fill 158" fill-rule="evenodd" clip-rule="evenodd" d="M83.2535 112C84.1708 112 85.0707 111.681 85.7194 111.121C86.3699 110.563 86.7414 109.789 86.7414 109C86.7414 108.21 86.3699 107.437 85.7194 106.878C85.0707 106.32 84.1708 106 83.2535 106C82.3345 106 81.4363 106.32 80.7858 106.878C80.1371 107.437 79.7656 108.21 79.7656 109C79.7656 109.789 80.1371 110.563 80.7858 111.121C81.4363 111.681 82.3345 112 83.2535 112Z" fill="#130D3A"/>
</g>
</g>
</g>
</svg>
