<svg width="80" height="79" viewBox="0 0 80 79" fill="none" xmlns="http://www.w3.org/2000/svg">
<g id="Icon">
<rect id="Rectangle" opacity="0.1" x="0.914062" width="79" height="79" rx="15" fill="#219653"/>
<g id="business-contact-86">
<path id="Shape" fill-rule="evenodd" clip-rule="evenodd" d="M30.9141 31.6786C30.9141 26.543 34.7374 21 40.9141 21C47.0907 21 50.9141 26.543 50.9141 31.6786C50.9141 39.2891 45.7232 44 40.9141 44C36.1049 44 30.9141 39.2891 30.9141 31.6786ZM32.6166 32.5444C32.9782 38.6262 37.0866 42.3571 40.9141 42.3571C44.7416 42.3571 48.8491 38.627 49.2124 32.5468C46.7332 32.215 44.4166 31.1693 42.5574 29.5297C40.2607 31.5619 37.3316 32.6733 34.2232 32.6733C33.6924 32.6733 33.1574 32.6216 32.6166 32.5444Z" fill="#219653"/>
<path id="Path" opacity="0.5" d="M55.8916 48.1827L47.2266 43C45.1957 44.7478 42.7682 45.7089 40.4141 45.7089C38.0599 45.7089 35.6324 44.7478 33.6016 43L24.9366 48.1827C23.6891 48.9287 22.9141 50.2935 22.9141 51.7439V58.1693C22.9141 58.6287 23.2874 59 23.7474 59H39.5807V50.6931C39.5807 50.2337 39.9532 49.8624 40.4141 49.8624C40.8749 49.8624 41.2474 50.2337 41.2474 50.6931V59H57.0807C57.5407 59 57.9141 58.6287 57.9141 58.1693V51.7439C57.9141 50.2935 57.1391 48.9287 55.8916 48.1827Z" fill="#219653"/>
</g>
</g>
</svg>
