<svg width="81" height="79" viewBox="0 0 81 79" fill="none" xmlns="http://www.w3.org/2000/svg">
<g id="Icon">
<rect id="Rectangle" opacity="0.1" x="0.713379" width="79.3908" height="79" rx="15" fill="#161C2D"/>
<g id="ic_timelapse_48px">
<path id="Path" d="M48.59 32.359C46.4645 30.253 43.6879 29.2 40.9112 29.2V40L33.2324 47.641C37.4743 51.862 44.3391 51.862 48.581 47.641C52.8228 43.42 52.8228 36.58 48.59 32.359Z" fill="#161C2D"/>
<path id="Combined Shape" opacity="0.5" fill-rule="evenodd" clip-rule="evenodd" d="M22.8223 40C22.8223 30.055 30.9171 22 40.9113 22C50.9055 22 59.0003 30.055 59.0003 40C59.0003 49.936 50.9055 58 40.9113 58C30.9171 58 22.8223 49.945 22.8223 40ZM26.4401 40C26.4401 47.956 32.9159 54.4 40.9113 54.4C48.9066 54.4 55.3825 47.956 55.3825 40C55.3825 32.044 48.9066 25.6 40.9113 25.6C32.9159 25.6 26.4401 32.044 26.4401 40Z" fill="#161C2D"/>
</g>
</g>
</svg>
